<mxfile host="app.diagrams.net" agent="Mozilla/5.0 (Windows NT 10.0; Win64; x64) AppleWebKit/537.36 (KHTML, like Gecko) Chrome/136.0.0.0 Safari/537.36" version="26.2.14">
  <diagram name="Page-1" id="yQESkLhXEzzQQhn5hz1w">
    <mxGraphModel dx="1042" dy="1627" grid="1" gridSize="10" guides="1" tooltips="1" connect="1" arrows="1" fold="1" page="1" pageScale="1" pageWidth="850" pageHeight="1100" math="0" shadow="0">
      <root>
        <mxCell id="0" />
        <mxCell id="1" parent="0" />
        <mxCell id="xEw2rrlbEqYeuh8n6W4B-4" style="edgeStyle=orthogonalEdgeStyle;rounded=0;orthogonalLoop=1;jettySize=auto;html=1;exitX=0.5;exitY=1;exitDx=0;exitDy=0;entryX=0.5;entryY=0;entryDx=0;entryDy=0;" parent="1" source="Td_hASd5y9tShkf-4XBK-1" target="xEw2rrlbEqYeuh8n6W4B-2" edge="1">
          <mxGeometry relative="1" as="geometry" />
        </mxCell>
        <mxCell id="Td_hASd5y9tShkf-4XBK-1" value="" style="ellipse;html=1;shape=startState;fillColor=#000000;strokeColor=#ff0000;" parent="1" vertex="1">
          <mxGeometry x="411" y="-126" width="30" height="30" as="geometry" />
        </mxCell>
        <mxCell id="Td_hASd5y9tShkf-4XBK-5" style="edgeStyle=orthogonalEdgeStyle;rounded=0;orthogonalLoop=1;jettySize=auto;html=1;exitX=0.5;exitY=1;exitDx=0;exitDy=0;entryX=0.5;entryY=0;entryDx=0;entryDy=0;" parent="1" source="Td_hASd5y9tShkf-4XBK-3" target="Td_hASd5y9tShkf-4XBK-4" edge="1">
          <mxGeometry relative="1" as="geometry" />
        </mxCell>
        <mxCell id="Td_hASd5y9tShkf-4XBK-3" value="Login" style="html=1;dashed=0;whiteSpace=wrap;" parent="1" vertex="1">
          <mxGeometry x="375" y="224" width="100" height="50" as="geometry" />
        </mxCell>
        <mxCell id="Td_hASd5y9tShkf-4XBK-23" style="edgeStyle=orthogonalEdgeStyle;rounded=0;orthogonalLoop=1;jettySize=auto;html=1;exitX=0.5;exitY=1;exitDx=0;exitDy=0;entryX=0.5;entryY=0;entryDx=0;entryDy=0;" parent="1" source="Td_hASd5y9tShkf-4XBK-4" target="Td_hASd5y9tShkf-4XBK-22" edge="1">
          <mxGeometry relative="1" as="geometry" />
        </mxCell>
        <mxCell id="bxXqh5lDY7GjwBXbnpES-7" value="Berhasil" style="edgeLabel;html=1;align=center;verticalAlign=middle;resizable=0;points=[];" vertex="1" connectable="0" parent="Td_hASd5y9tShkf-4XBK-23">
          <mxGeometry x="-0.373" y="-1" relative="1" as="geometry">
            <mxPoint as="offset" />
          </mxGeometry>
        </mxCell>
        <mxCell id="bxXqh5lDY7GjwBXbnpES-5" style="edgeStyle=orthogonalEdgeStyle;rounded=0;orthogonalLoop=1;jettySize=auto;html=1;exitX=0;exitY=0.5;exitDx=0;exitDy=0;entryX=0;entryY=0.5;entryDx=0;entryDy=0;" edge="1" parent="1" source="Td_hASd5y9tShkf-4XBK-4" target="Td_hASd5y9tShkf-4XBK-11">
          <mxGeometry relative="1" as="geometry">
            <Array as="points">
              <mxPoint x="320" y="368" />
              <mxPoint x="320" y="151" />
            </Array>
          </mxGeometry>
        </mxCell>
        <mxCell id="bxXqh5lDY7GjwBXbnpES-6" value="Tidak berhasil" style="edgeLabel;html=1;align=center;verticalAlign=middle;resizable=0;points=[];" vertex="1" connectable="0" parent="bxXqh5lDY7GjwBXbnpES-5">
          <mxGeometry x="0.1964" y="-2" relative="1" as="geometry">
            <mxPoint y="21" as="offset" />
          </mxGeometry>
        </mxCell>
        <mxCell id="Td_hASd5y9tShkf-4XBK-4" value="Validasi Username &amp;amp; Password" style="rhombus;whiteSpace=wrap;html=1;" parent="1" vertex="1">
          <mxGeometry x="378" y="320" width="95" height="95" as="geometry" />
        </mxCell>
        <mxCell id="Td_hASd5y9tShkf-4XBK-14" style="edgeStyle=orthogonalEdgeStyle;rounded=0;orthogonalLoop=1;jettySize=auto;html=1;exitX=0.5;exitY=1;exitDx=0;exitDy=0;entryX=0.5;entryY=0;entryDx=0;entryDy=0;" parent="1" source="Td_hASd5y9tShkf-4XBK-11" target="Td_hASd5y9tShkf-4XBK-3" edge="1">
          <mxGeometry relative="1" as="geometry" />
        </mxCell>
        <mxCell id="Td_hASd5y9tShkf-4XBK-11" value="Memasukkan Username &amp;amp; Password" style="html=1;dashed=0;whiteSpace=wrap;" parent="1" vertex="1">
          <mxGeometry x="375" y="126" width="100" height="50" as="geometry" />
        </mxCell>
        <mxCell id="Td_hASd5y9tShkf-4XBK-19" style="edgeStyle=orthogonalEdgeStyle;rounded=0;orthogonalLoop=1;jettySize=auto;html=1;exitX=0.5;exitY=1;exitDx=0;exitDy=0;entryX=1;entryY=0.5;entryDx=0;entryDy=0;" parent="1" source="Td_hASd5y9tShkf-4XBK-17" target="Td_hASd5y9tShkf-4XBK-11" edge="1">
          <mxGeometry relative="1" as="geometry" />
        </mxCell>
        <mxCell id="Td_hASd5y9tShkf-4XBK-17" value="Melakukan Pendaftaran Akun" style="html=1;dashed=0;whiteSpace=wrap;" parent="1" vertex="1">
          <mxGeometry x="540" y="30" width="100" height="50" as="geometry" />
        </mxCell>
        <mxCell id="Td_hASd5y9tShkf-4XBK-22" value="Halaman Utama" style="html=1;dashed=0;whiteSpace=wrap;" parent="1" vertex="1">
          <mxGeometry x="375" y="470" width="100" height="50" as="geometry" />
        </mxCell>
        <mxCell id="Td_hASd5y9tShkf-4XBK-26" style="edgeStyle=orthogonalEdgeStyle;rounded=0;orthogonalLoop=1;jettySize=auto;html=1;exitX=0.5;exitY=1;exitDx=0;exitDy=0;entryX=0.5;entryY=0;entryDx=0;entryDy=0;" parent="1" source="Td_hASd5y9tShkf-4XBK-22" target="Td_hASd5y9tShkf-4XBK-29" edge="1">
          <mxGeometry relative="1" as="geometry">
            <mxPoint x="425" y="600" as="targetPoint" />
          </mxGeometry>
        </mxCell>
        <mxCell id="Td_hASd5y9tShkf-4XBK-48" style="edgeStyle=orthogonalEdgeStyle;rounded=0;orthogonalLoop=1;jettySize=auto;html=1;exitX=0.5;exitY=1;exitDx=0;exitDy=0;entryX=0.5;entryY=0;entryDx=0;entryDy=0;" parent="1" source="Td_hASd5y9tShkf-4XBK-27" target="Td_hASd5y9tShkf-4XBK-38" edge="1">
          <mxGeometry relative="1" as="geometry" />
        </mxCell>
        <mxCell id="Td_hASd5y9tShkf-4XBK-27" value="Memilih Form Pendaftaran Pasien Lama" style="html=1;dashed=0;whiteSpace=wrap;" parent="1" vertex="1">
          <mxGeometry x="120" y="700" width="100" height="50" as="geometry" />
        </mxCell>
        <mxCell id="Td_hASd5y9tShkf-4XBK-51" style="edgeStyle=orthogonalEdgeStyle;rounded=0;orthogonalLoop=1;jettySize=auto;html=1;exitX=0.5;exitY=1;exitDx=0;exitDy=0;entryX=0.5;entryY=0;entryDx=0;entryDy=0;" parent="1" source="Td_hASd5y9tShkf-4XBK-28" target="Td_hASd5y9tShkf-4XBK-39" edge="1">
          <mxGeometry relative="1" as="geometry" />
        </mxCell>
        <mxCell id="Td_hASd5y9tShkf-4XBK-28" value="Memilih Form Pendaftaran Pasien Baru" style="html=1;dashed=0;whiteSpace=wrap;" parent="1" vertex="1">
          <mxGeometry x="640" y="770" width="100" height="50" as="geometry" />
        </mxCell>
        <mxCell id="Td_hASd5y9tShkf-4XBK-30" style="edgeStyle=orthogonalEdgeStyle;rounded=0;orthogonalLoop=1;jettySize=auto;html=1;exitX=1;exitY=0.5;exitDx=0;exitDy=0;entryX=0.5;entryY=0;entryDx=0;entryDy=0;" parent="1" source="Td_hASd5y9tShkf-4XBK-43" target="Td_hASd5y9tShkf-4XBK-28" edge="1">
          <mxGeometry relative="1" as="geometry" />
        </mxCell>
        <mxCell id="Td_hASd5y9tShkf-4XBK-31" style="edgeStyle=orthogonalEdgeStyle;rounded=0;orthogonalLoop=1;jettySize=auto;html=1;exitX=0;exitY=0.5;exitDx=0;exitDy=0;entryX=0.5;entryY=0;entryDx=0;entryDy=0;" parent="1" source="Td_hASd5y9tShkf-4XBK-29" target="Td_hASd5y9tShkf-4XBK-27" edge="1">
          <mxGeometry relative="1" as="geometry" />
        </mxCell>
        <mxCell id="Td_hASd5y9tShkf-4XBK-44" value="Lama" style="edgeLabel;html=1;align=center;verticalAlign=middle;resizable=0;points=[];" parent="Td_hASd5y9tShkf-4XBK-31" vertex="1" connectable="0">
          <mxGeometry x="-0.4655" y="-3" relative="1" as="geometry">
            <mxPoint y="-12" as="offset" />
          </mxGeometry>
        </mxCell>
        <mxCell id="Td_hASd5y9tShkf-4XBK-46" value="Baru" style="edgeStyle=orthogonalEdgeStyle;rounded=0;orthogonalLoop=1;jettySize=auto;html=1;exitX=0.5;exitY=1;exitDx=0;exitDy=0;entryX=0.5;entryY=0;entryDx=0;entryDy=0;" parent="1" source="Td_hASd5y9tShkf-4XBK-29" target="Td_hASd5y9tShkf-4XBK-43" edge="1">
          <mxGeometry y="15" relative="1" as="geometry">
            <mxPoint as="offset" />
          </mxGeometry>
        </mxCell>
        <mxCell id="Td_hASd5y9tShkf-4XBK-29" value="Validasi Data Pasien Lama/Baru" style="rhombus;whiteSpace=wrap;html=1;" parent="1" vertex="1">
          <mxGeometry x="370" y="550" width="110" height="110" as="geometry" />
        </mxCell>
        <mxCell id="Td_hASd5y9tShkf-4XBK-54" style="edgeStyle=orthogonalEdgeStyle;rounded=0;orthogonalLoop=1;jettySize=auto;html=1;exitX=0.5;exitY=1;exitDx=0;exitDy=0;entryX=0;entryY=0.5;entryDx=0;entryDy=0;" parent="1" source="Td_hASd5y9tShkf-4XBK-38" target="Td_hASd5y9tShkf-4XBK-52" edge="1">
          <mxGeometry relative="1" as="geometry" />
        </mxCell>
        <mxCell id="Td_hASd5y9tShkf-4XBK-38" value="Memilih Dokter dan Waktu Kontrol" style="html=1;dashed=0;whiteSpace=wrap;" parent="1" vertex="1">
          <mxGeometry x="120" y="800" width="100" height="50" as="geometry" />
        </mxCell>
        <mxCell id="Td_hASd5y9tShkf-4XBK-53" style="edgeStyle=orthogonalEdgeStyle;rounded=0;orthogonalLoop=1;jettySize=auto;html=1;exitX=0.5;exitY=1;exitDx=0;exitDy=0;entryX=1;entryY=0.5;entryDx=0;entryDy=0;" parent="1" source="Td_hASd5y9tShkf-4XBK-39" target="Td_hASd5y9tShkf-4XBK-52" edge="1">
          <mxGeometry relative="1" as="geometry" />
        </mxCell>
        <mxCell id="Td_hASd5y9tShkf-4XBK-39" value="Memilih Dokter dan Waktu Kontrol" style="html=1;dashed=0;whiteSpace=wrap;" parent="1" vertex="1">
          <mxGeometry x="640" y="860" width="100" height="50" as="geometry" />
        </mxCell>
        <mxCell id="Td_hASd5y9tShkf-4XBK-49" style="edgeStyle=orthogonalEdgeStyle;rounded=0;orthogonalLoop=1;jettySize=auto;html=1;exitX=0;exitY=0.5;exitDx=0;exitDy=0;entryX=1;entryY=0.5;entryDx=0;entryDy=0;" parent="1" source="Td_hASd5y9tShkf-4XBK-43" target="Td_hASd5y9tShkf-4XBK-27" edge="1">
          <mxGeometry relative="1" as="geometry" />
        </mxCell>
        <mxCell id="Td_hASd5y9tShkf-4XBK-43" value="Melengkapi Data" style="html=1;dashed=0;whiteSpace=wrap;" parent="1" vertex="1">
          <mxGeometry x="375" y="700" width="100" height="50" as="geometry" />
        </mxCell>
        <mxCell id="Td_hASd5y9tShkf-4XBK-56" style="edgeStyle=orthogonalEdgeStyle;rounded=0;orthogonalLoop=1;jettySize=auto;html=1;exitX=0.5;exitY=1;exitDx=0;exitDy=0;entryX=0.5;entryY=0;entryDx=0;entryDy=0;" parent="1" source="Td_hASd5y9tShkf-4XBK-52" target="Td_hASd5y9tShkf-4XBK-55" edge="1">
          <mxGeometry relative="1" as="geometry" />
        </mxCell>
        <mxCell id="Td_hASd5y9tShkf-4XBK-52" value="Melihat Konfirmasi Pendaftaran" style="html=1;dashed=0;whiteSpace=wrap;" parent="1" vertex="1">
          <mxGeometry x="375" y="910" width="100" height="50" as="geometry" />
        </mxCell>
        <mxCell id="Td_hASd5y9tShkf-4XBK-62" style="edgeStyle=orthogonalEdgeStyle;rounded=0;orthogonalLoop=1;jettySize=auto;html=1;exitX=0.5;exitY=1;exitDx=0;exitDy=0;entryX=0.5;entryY=0;entryDx=0;entryDy=0;" parent="1" source="Td_hASd5y9tShkf-4XBK-55" target="Td_hASd5y9tShkf-4XBK-57" edge="1">
          <mxGeometry relative="1" as="geometry" />
        </mxCell>
        <mxCell id="Td_hASd5y9tShkf-4XBK-55" value="Menerima Email/Whatsapp Konfirmasi Pendaftaran" style="html=1;dashed=0;whiteSpace=wrap;" parent="1" vertex="1">
          <mxGeometry x="375" y="1000" width="100" height="70" as="geometry" />
        </mxCell>
        <mxCell id="Td_hASd5y9tShkf-4XBK-60" value="Pasien Lama/Baru Non-BPJS" style="edgeStyle=orthogonalEdgeStyle;rounded=0;orthogonalLoop=1;jettySize=auto;html=1;exitX=1;exitY=0.5;exitDx=0;exitDy=0;entryX=0.5;entryY=0;entryDx=0;entryDy=0;" parent="1" source="Td_hASd5y9tShkf-4XBK-57" target="Td_hASd5y9tShkf-4XBK-59" edge="1">
          <mxGeometry x="0.0438" y="10" relative="1" as="geometry">
            <mxPoint as="offset" />
          </mxGeometry>
        </mxCell>
        <mxCell id="Td_hASd5y9tShkf-4XBK-61" value="Pasien Lama BPJS" style="edgeStyle=orthogonalEdgeStyle;rounded=0;orthogonalLoop=1;jettySize=auto;html=1;exitX=0;exitY=0.5;exitDx=0;exitDy=0;entryX=0.5;entryY=0;entryDx=0;entryDy=0;" parent="1" source="Td_hASd5y9tShkf-4XBK-57" target="Td_hASd5y9tShkf-4XBK-58" edge="1">
          <mxGeometry x="-0.2105" y="-10" relative="1" as="geometry">
            <mxPoint as="offset" />
          </mxGeometry>
        </mxCell>
        <mxCell id="Td_hASd5y9tShkf-4XBK-57" value="Validasi Pasien" style="rhombus;whiteSpace=wrap;html=1;" parent="1" vertex="1">
          <mxGeometry x="385" y="1140" width="80" height="80" as="geometry" />
        </mxCell>
        <mxCell id="Td_hASd5y9tShkf-4XBK-65" style="edgeStyle=orthogonalEdgeStyle;rounded=0;orthogonalLoop=1;jettySize=auto;html=1;exitX=0.5;exitY=1;exitDx=0;exitDy=0;entryX=0.5;entryY=0;entryDx=0;entryDy=0;" parent="1" source="Td_hASd5y9tShkf-4XBK-58" target="Td_hASd5y9tShkf-4XBK-63" edge="1">
          <mxGeometry relative="1" as="geometry">
            <mxPoint x="420" y="1370" as="targetPoint" />
          </mxGeometry>
        </mxCell>
        <mxCell id="Td_hASd5y9tShkf-4XBK-58" value="Registrasi Ulang Mesin APM" style="html=1;dashed=0;whiteSpace=wrap;" parent="1" vertex="1">
          <mxGeometry x="140" y="1251" width="100" height="50" as="geometry" />
        </mxCell>
        <mxCell id="Td_hASd5y9tShkf-4XBK-64" style="edgeStyle=orthogonalEdgeStyle;rounded=0;orthogonalLoop=1;jettySize=auto;html=1;exitX=0.5;exitY=1;exitDx=0;exitDy=0;entryX=0.5;entryY=0;entryDx=0;entryDy=0;" parent="1" source="Td_hASd5y9tShkf-4XBK-59" target="Td_hASd5y9tShkf-4XBK-63" edge="1">
          <mxGeometry relative="1" as="geometry" />
        </mxCell>
        <mxCell id="Td_hASd5y9tShkf-4XBK-59" value="Registrasi Ulang Loket Online" style="html=1;dashed=0;whiteSpace=wrap;" parent="1" vertex="1">
          <mxGeometry x="640" y="1252" width="100" height="50" as="geometry" />
        </mxCell>
        <mxCell id="Td_hASd5y9tShkf-4XBK-63" value="" style="ellipse;html=1;shape=endState;fillColor=#000000;strokeColor=#ff0000;" parent="1" vertex="1">
          <mxGeometry x="411" y="1370" width="30" height="30" as="geometry" />
        </mxCell>
        <mxCell id="ceY3i2jJzdet7MN6qrDs-3" value="Ya" style="edgeStyle=orthogonalEdgeStyle;rounded=0;orthogonalLoop=1;jettySize=auto;html=1;exitX=0.5;exitY=1;exitDx=0;exitDy=0;entryX=0.5;entryY=0;entryDx=0;entryDy=0;" parent="1" source="xEw2rrlbEqYeuh8n6W4B-2" target="Td_hASd5y9tShkf-4XBK-11" edge="1">
          <mxGeometry relative="1" as="geometry">
            <mxPoint x="425" y="60" as="sourcePoint" />
          </mxGeometry>
        </mxCell>
        <mxCell id="xEw2rrlbEqYeuh8n6W4B-3" value="Tidak" style="edgeStyle=orthogonalEdgeStyle;rounded=0;orthogonalLoop=1;jettySize=auto;html=1;exitX=1;exitY=0.5;exitDx=0;exitDy=0;entryX=0.5;entryY=0;entryDx=0;entryDy=0;" parent="1" source="xEw2rrlbEqYeuh8n6W4B-2" target="Td_hASd5y9tShkf-4XBK-17" edge="1">
          <mxGeometry relative="1" as="geometry" />
        </mxCell>
        <mxCell id="xEw2rrlbEqYeuh8n6W4B-2" value="Memiliki Akun?" style="rhombus;whiteSpace=wrap;html=1;" parent="1" vertex="1">
          <mxGeometry x="385" y="-66" width="80" height="80" as="geometry" />
        </mxCell>
      </root>
    </mxGraphModel>
  </diagram>
</mxfile>
